# xmcd
#
# Track frame offsets:
#	150
#	13352
#	30116
#	48245
#	66660
#	81505
#	98789
#	115398
#	128946
#	148835
#	166548
#	188488
#	210959
#	225110
#	239183
#	265223
#
# Disc length: 3542 seconds
#
# Revision: 1
# Processed by: cddbd v1.5.2PL0 Copyright (c) Steve Scherf et al.
# Submitted via: audiograbber 1.83.01
#
DISCID=d80dd410
DTITLE=Various Artist - Keynote Gal Country Vol2,1
DYEAR=2006
DGENRE=Karaoke
TTITLE0=Meridth Edwards - A Rose Is A Rose
TTITLE1=Emmylou Harris - Boulder To Birmingham
TTITLE2=Jo Dee Messina w/Tim McGraw - Bring On The Rain
TTITLE3=Jo Dee Messina - Burn
TTITLE4=Jo Dee Messina - Dare To Dream
TTITLE5=Jo Dee Messina - Downtime
TTITLE6=Reba McEntire - For My Broken Heart
TTITLE7=Jamie O'Neal - Frantic
TTITLE8=LeAnn Rimes - How Do I Live
TTITLE9=Chely Wright - I Could Never Love You Enough
TTITLE10=Sara Eveans - I Keep Looking
TTITLE11=Lee Ann Womak - I Know Why The River Runs
TTITLE12=Dixie Chicks - If I Fall You're Going Down With Me
TTITLE13=Reba McEntire - I'm A Survivor
TTITLE14=Chely Wright - Jezebel
TTITLE15=data - Data Track
EXTD=
EXTT0=
EXTT1=
EXTT2=
EXTT3=
EXTT4=
EXTT5=
EXTT6=
EXTT7=
EXTT8=
EXTT9=
EXTT10=
EXTT11=
EXTT12=
EXTT13=
EXTT14=
EXTT15=
PLAYORDER=
